<svg width="1024" height="1024" viewBox="0 0 1024 1024" fill="none" xmlns="http://www.w3.org/2000/svg">
  <defs>
    <linearGradient id="bg" x1="120" y1="120" x2="904" y2="904" gradientUnits="userSpaceOnUse">
      <stop offset="0" stop-color="#0F172A"/>
      <stop offset="1" stop-color="#1E293B"/>
    </linearGradient>
    <linearGradient id="accent" x1="280" y1="248" x2="760" y2="768" gradientUnits="userSpaceOnUse">
      <stop offset="0" stop-color="#F43F5E"/>
      <stop offset="1" stop-color="#E11D48"/>
    </linearGradient>
  </defs>

  <rect x="88" y="88" width="848" height="848" rx="198" fill="url(#bg)"/>

  <rect x="220" y="172" width="584" height="680" rx="112" fill="#F8FAFC"/>
  <rect x="220" y="172" width="584" height="144" rx="72" fill="url(#accent)"/>
  <circle cx="348" cy="246" r="30" fill="#F8FAFC" fill-opacity="0.92"/>
  <circle cx="440" cy="246" r="30" fill="#F8FAFC" fill-opacity="0.92"/>

  <rect x="308" y="370" width="408" height="388" rx="94" fill="#E2E8F0"/>
  <path d="M304 724L410 604L486 676L616 530L722 628V662C722 714.467 679.467 757 627 757H399C346.533 757 304 714.467 304 662V724Z" fill="url(#accent)"/>
  <path d="M393 600L461 672L639 494" stroke="#F8FAFC" stroke-width="34" stroke-linecap="round" stroke-linejoin="round"/>
</svg>
